<?xml version="1.0" encoding="UTF-8"?>
<svg version="1.1" xmlns="http://www.w3.org/2000/svg" width="500" height="500">
<!-- <path d="M0 0 C165 0 330 0 500 0 C500 165 500 330 500 500 C335 500 170 500 0 500 C0 335 0 170 0 0 Z " fill="#FEFEFE" transform="translate(0,0)"/> -->
<path d="M0 0 C13.44766797 -0.34875806 26.89424729 -0.61467128 40.34552956 -0.77718258 C46.59298928 -0.85521527 52.83733845 -0.96089467 59.08300781 -1.1315918 C65.11984774 -1.29553402 71.15371253 -1.38445334 77.19260788 -1.42315865 C79.4869507 -1.45070903 81.78114466 -1.50451555 84.07420731 -1.58595085 C102.95037298 -2.22916833 102.95037298 -2.22916833 109.49017334 3.29196167 C112.59598633 6.37947089 115.26460232 9.69987751 117.78136826 13.27880669 C119.27325438 15.385944 120.94371667 17.28613657 122.6875 19.1875 C123.19667969 19.77917969 123.70585937 20.37085938 124.23046875 20.98046875 C126.6088442 23.69486193 129.05508905 26.34572387 131.5 29 C134.53894492 32.30022784 137.56156211 35.60949474 140.5 39 C143.86322638 42.87817013 147.33335671 46.65527811 150.80810547 50.43310547 C155.24223628 55.25584891 159.6251824 60.1234112 164 65 C165.49971128 66.66692647 166.99971321 68.33359149 168.5 70 C186.5 90 186.5 90 188.7109375 92.4765625 C190.3152775 94.24516939 191.94820327 95.98806767 193.6015625 97.7109375 C194.43429687 98.59007812 195.26703125 99.46921875 196.125 100.375 C196.89070312 101.16648437 197.65640625 101.95796875 198.4453125 102.7734375 C200 105 200 105 199.79296875 106.91357422 C198.85618388 109.37840289 197.69765694 110.71620778 195.8671875 112.609375 C195.22523438 113.28226562 194.58328125 113.95515625 193.921875 114.6484375 C193.24640625 115.34195313 192.5709375 116.03546875 191.875 116.75 C190.55854266 118.11849123 189.24343463 119.48828177 187.9296875 120.859375 C187.27452148 121.54257813 186.61935547 122.22578125 185.94433594 122.9296875 C183.44286035 125.59323759 181.04851634 128.34066126 178.65673828 131.10253906 C176.16403051 133.95743515 173.58389757 136.72784031 171 139.5 C167.21011662 143.58469759 163.47824608 147.7039735 159.83203125 151.91796875 C157.00135739 155.13491793 154.09232984 158.2797068 151.19165039 161.43334961 C146.75763961 166.25602903 142.37383922 171.12269727 138 176 C133.15478572 181.40293678 128.28766045 186.78340331 123.375 192.125 C115.70541329 200.20707094 115.70541329 200.20707094 109.02075195 209.06933594 C107.36580337 211.03604696 106.41099323 211.88828167 103.91168213 212.56765747 C101.27097821 212.79393336 98.68558302 212.83030598 96.03515625 212.8046875 C95.03332809 212.81843918 94.03149994 212.83219086 92.99931335 212.84635925 C89.68660606 212.8844247 86.37539952 212.88000447 83.0625 212.875 C80.75876931 212.8926923 78.4550562 212.91282959 76.15136719 212.93530273 C70.03781867 212.98630021 63.92483685 212.9984972 57.81109619 212.99859619 C53.96045264 213.00001457 50.10990258 213.00930201 46.25927734 213.02099609 C30.83928771 213.06643745 15.4199322 213.06103204 0 213 C0.92500301 211.73709894 1.85422962 210.47729092 2.78515625 209.21875 C3.30215088 208.51685547 3.81914551 207.81496094 4.35180664 207.09179688 C6.45164464 204.42679733 8.79853922 202.11947178 11.23046875 199.76171875 C13.61674427 197.38597866 15.78661432 194.84998564 17.984375 192.30078125 C20.44480309 189.49226934 22.96976785 186.74539813 25.5 184 C29.12109927 180.0673362 32.68959352 176.09785496 36.19140625 172.05859375 C39.2777948 168.54557698 42.44628778 165.10700182 45.59765625 161.65234375 C47.56941844 159.47539004 49.51365337 157.28161326 51.4375 155.0625 C54.86768576 151.11332633 58.41003518 147.26977695 61.95288086 143.42211914 C64.50540453 140.6452363 67.02975746 137.85027985 69.5 135 C72.43845026 131.60948047 75.46154459 128.30069088 78.5 125 C83.27523063 119.80414609 83.27523063 119.80414609 88 114.5625 C88.515625 113.98628906 89.03125 113.41007812 89.5625 112.81640625 C91.26851301 110.66071047 92.62863483 108.37948183 94 106 C93.43152344 105.3709375 92.86304688 104.741875 92.27734375 104.09375 C88.6796237 100.10562627 85.08571896 96.11673044 81.5625 92.0625 C77.90821138 87.86557919 74.15255027 83.7634724 70.40234375 79.65234375 C68.43058156 77.47539004 66.48634663 75.28161326 64.5625 73.0625 C61.6011649 69.6531142 58.55847514 66.3220569 55.5 63 C51.85585671 59.04137814 48.26086283 55.0482324 44.734375 50.984375 C41.20500535 46.94626738 37.59429369 42.98025811 34 39 C25.43139793 29.51127959 25.43139793 29.51127959 21.5625 25.0625 C18.75177475 21.83440488 15.884201 18.66261557 13 15.5 C1.36294416 2.72588832 1.36294416 2.72588832 0 0 Z " fill="#3A3CE4" transform="translate(234,127)"/>
<path d="M0 0 C11.430633 -0.05735169 22.86010298 -0.05917225 34.290802 -0.01428223 C41.20341089 0.00752972 48.11433175 -0.01847342 55.02660465 -0.08180141 C60.55285996 -0.12985572 66.0785033 -0.13942789 71.60494137 -0.12536716 C75.0084788 -0.11824355 78.40990427 -0.12896516 81.81307983 -0.18191528 C85.6633727 -0.23286858 89.50892999 -0.22083149 93.359375 -0.1953125 C94.50455093 -0.22504654 95.64972687 -0.25478058 96.8296051 -0.28541565 C101.68144987 -0.19863579 104.7799488 0.00949232 108.62414551 3.13043213 C110.91679001 5.6606737 112.96005517 8.26412807 115 11 C116.48422883 12.68072679 117.98239448 14.34934823 119.5 16 C122.5 19.33333333 125.5 22.66666667 128.5 26 C129.24507812 26.82757813 129.99015625 27.65515625 130.7578125 28.5078125 C132.23292618 30.14739879 133.70691652 31.78799655 135.1796875 33.4296875 C139.30097768 38.0203061 143.44873788 42.58447107 147.625 47.125 C151.18253099 50.99367822 154.68289575 54.90334125 158.125 58.875 C160.54550075 61.61823418 163.02200642 64.30884568 165.5 67 C168.53888018 70.30028923 171.56156045 73.60949283 174.5 77 C177.40086446 80.34501596 180.37860675 83.61571129 183.375 86.875 C183.84284912 87.38482422 184.31069824 87.89464844 184.79272461 88.41992188 C187.06986538 90.9010737 189.35034933 93.37889631 191.63671875 95.8515625 C192.43722656 96.72554688 193.23773438 97.59953125 194.0625 98.5 C194.77535156 99.2734375 195.48820313 100.046875 196.22265625 100.84375 C197.86446836 102.8355748 198.96755844 104.64624722 200 107 C195.76960973 111.93049007 191.41727848 116.7374393 187 121.5 C183.21114026 125.58567215 179.47828046 129.70393377 175.83203125 133.91796875 C173.00135739 137.13491793 170.09232984 140.2797068 167.19165039 143.43334961 C162.75763961 148.25602903 158.37383922 153.12269727 154 158 C149.15478907 163.40293305 144.28791402 168.78363904 139.375 174.125 C136.39781719 177.36217216 133.44047144 180.61137729 130.5625 183.9375 C126.94433919 188.11364223 123.17999416 192.1503158 119.42236328 196.20043945 C116.01396594 199.88109884 112.66939576 203.60665838 109.40234375 207.4140625 C108.93957031 207.93742188 108.47679687 208.46078125 108 209 C107.34742486 209.78040382 107.34742486 209.78040382 106.68166637 210.57657337 C104.54468951 212.38539218 103.46379089 212.3707978 100.69099426 212.36076355 C99.81179825 212.36488754 98.93260223 212.36901154 98.02676392 212.3732605 C97.06507294 212.36247467 96.10338196 212.35168884 95.11254883 212.34057617 C94.09773941 212.34101425 93.08292999 212.34145233 92.03736877 212.34190369 C88.67706177 212.33981067 85.31725129 212.316455 81.95703125 212.29296875 C79.62961601 212.28737463 77.30219725 212.28310367 74.97477722 212.28010559 C68.84427159 212.26864237 62.71397864 212.23916229 56.58355713 212.20599365 C50.32982256 212.17532469 44.07605369 212.16160704 37.82226562 212.14648438 C25.54808356 212.11429417 13.27405945 212.06307984 1 212 C3.24308003 208.59763257 5.39106329 205.36545122 8.20703125 202.4140625 C8.7899292 201.79764893 9.37282715 201.18123535 9.97338867 200.54614258 C10.58029541 199.91216553 11.18720215 199.27818848 11.8125 198.625 C13.07641808 197.28860844 14.33945054 195.95137868 15.6015625 194.61328125 C16.19743164 193.98244629 16.79330078 193.35161133 17.40722656 192.70166016 C19.75021709 190.19849584 21.99446108 187.61782878 24.23046875 185.01953125 C26.6088442 182.30513807 29.05508905 179.65427613 31.5 177 C34.53894492 173.69977216 37.56156211 170.39050526 40.5 167 C43.43844065 163.60949156 46.46116302 160.30033018 49.5 157 C53.1441694 153.04140277 56.73913779 149.04823168 60.265625 144.984375 C63.79500714 140.94625309 67.40634226 136.98085319 71 133 C73.24616052 130.50512967 75.49146149 128.0095088 77.734375 125.51171875 C79.27904116 123.79926989 80.83147376 122.09380229 82.390625 120.39453125 C83.16921875 119.54246094 83.9478125 118.69039063 84.75 117.8125 C85.79414063 116.67748047 85.79414063 116.67748047 86.859375 115.51953125 C89.44983608 112.47053966 91.7093008 109.27986477 94 106 C93.21496094 105.154375 92.42992187 104.30875 91.62109375 103.4375 C86.58005555 97.99799886 81.55413762 92.55647371 76.69921875 86.94921875 C73.18593962 82.91904339 69.58253666 78.96853388 66 75 C63.75203023 72.50312008 61.50491993 70.00546849 59.2578125 67.5078125 C57.73291756 65.81407106 56.20684598 64.12138831 54.6796875 62.4296875 C51.28127068 58.66262885 47.8918339 54.89084414 44.5625 51.0625 C40.90942044 46.86696779 37.15494451 42.76626447 33.40625 38.65625 C30.84851229 35.83277331 28.34230031 32.96943998 25.84375 30.09375 C23.59123543 27.53580973 21.29682908 25.0182102 19 22.5 C15.5140973 18.67658176 12.06289287 14.82961941 8.671875 10.921875 C7.46081956 9.52972716 6.24090442 8.14527033 5.015625 6.765625 C4.37109375 6.03859375 3.7265625 5.3115625 3.0625 4.5625 C2.47597656 3.90378906 1.88945313 3.24507812 1.28515625 2.56640625 C0 1 0 1 0 0 Z " fill="#393BE4" transform="translate(91,127)"/>
<path d="M0 0 C4.68059853 4.0119416 8.91005191 7.84626277 13 12.375 C13.52271484 12.94734375 14.04542969 13.5196875 14.58398438 14.109375 C17.80366804 17.64502762 20.96657051 21.22603255 24.09375 24.84375 C26.68285002 27.77240413 29.34196234 30.63396673 32 33.5 C35.78450783 37.58101402 39.51735755 41.69073774 43.15234375 45.90625 C46.47156369 49.66756477 49.92191512 53.31207273 53.3515625 56.97265625 C56.20086803 60.11660828 58.58798874 63.51259744 61 67 C59.85724609 68.23363281 59.85724609 68.23363281 58.69140625 69.4921875 C52.4085048 76.2820548 46.17179017 83.10872974 40 90 C38.50043381 91.667057 37.00042947 93.33371995 35.5 95 C33.27170886 97.47502234 31.0442116 99.95071754 28.8203125 102.4296875 C24.2343265 107.53792102 19.61278033 112.61102152 14.96118164 117.65942383 C11.73833536 121.1663872 8.60033932 124.73361181 5.53515625 128.37890625 C4 130 4 130 0 133 C0 89.11 0 45.22 0 0 Z " fill="#393BE4" transform="translate(91,167)"/>
</svg>
